# xmcd CD database file
#
# Track frame offsets:
#	150
#	14472
#	30535
#	35337
#	55655
#	63880
#	81050
#	87945
#	106730
#	123380
#	131582
#	148720
#	155670
#	173432
#	178550
#	194115
#
# Disc length: 2855 seconds
#
# Revision: 1
# Processed by: cddbd v1.5.2PL0 Copyright (c) Steve Scherf et al.
# Submitted via: CDex 1.70beta2
#
DISCID=cd0b2510
DTITLE=魔法のスターマジカルエミ - 名作アニメ総集編
DYEAR=1900
DGENRE=Anime
TTITLE0=小幡洋子／不思議色ハピネス
TTITLE1=マジカル・サンバ
TTITLE2=O・TE・N・BAガール
TTITLE3=マジック団がやってくる
TTITLE4=ララバイ
TTITLE5=チャレンジャー
TTITLE6=センチメンタル・ドリーマー
TTITLE7=ダンシング・ウィズ・エミ
TTITLE8=小幡洋子／あなただけDREAMING
TTITLE9=ロマンチック・サンライズ
TTITLE10=ミラクル・ファンタジー
TTITLE11=気分はマカロニ・ウエスタン
TTITLE12=マジカラットへようこそ！
TTITLE13=エレガンス・レディ
TTITLE14=めざせ！マジシャン
TTITLE15=小幡洋子／南国人魚姫
EXTD=
EXTT0=
EXTT1=
EXTT2=
EXTT3=
EXTT4=
EXTT5=
EXTT6=
EXTT7=
EXTT8=
EXTT9=
EXTT10=
EXTT11=
EXTT12=
EXTT13=
EXTT14=
EXTT15=
PLAYORDER=
